HIERARCHY
ROOT Hips
{
  OFFSET -9.37941 106.573 1.43149
  CHANNELS 6 Xposition Yposition Zposition Zrotation Xrotation Yrotation
  JOINT ToSpine
  {
    OFFSET -2.69724 7.43032 -0.144315
    CHANNELS 3 Zrotation Xrotation Yrotation
    JOINT Spine
    {
      OFFSET -0.0310711 10.7595 1.96963
      CHANNELS 3 Zrotation Xrotation Yrotation
      JOINT Spine1
      {
        OFFSET 19.9056 3.91189 0.764692
        CHANNELS 3 Zrotation Xrotation Yrotation
        JOINT Neck
        {
          OFFSET 25.9749 7.03908 -0.130764
          CHANNELS 3 Zrotation Xrotation Yrotation
          JOINT Head
          {
            OFFSET 9.52751 0.295786 -0.907742
            CHANNELS 3 Zrotation Xrotation Yrotation
            End Site
            {
              OFFSET 16.4037 0.713936 2.7358
            }
          }
        }
        JOINT LeftShoulder
        {
          OFFSET 17.7449 4.33886 11.7777
          CHANNELS 3 Zrotation Xrotation Yrotation
          JOINT LeftArm
          {
            OFFSET 0.911315 1.27913 9.80584
            CHANNELS 3 Zrotation Xrotation Yrotation
            JOINT LeftForeArm
            {
              OFFSET 28.6126 1.18197 -3.53199
              CHANNELS 3 Zrotation Xrotation Yrotation
              JOINT LeftHand
              {
                OFFSET 27.5088 0.0218783 0.327423
                CHANNELS 3 Zrotation Xrotation Yrotation
                End Site
                {
                  OFFSET 18.6038 -0.000155887 0.382096
                }
              }
            }
          }
        }
        JOINT RightShoulder
        {
          OFFSET 17.1009 2.89543 -12.2328
          CHANNELS 3 Zrotation Xrotation Yrotation
          JOINT RightArm
          {
            OFFSET 1.4228 0.178766 -10.211
            CHANNELS 3 Zrotation Xrotation Yrotation
            JOINT RightForeArm
            {
              OFFSET 28.733 1.87905 2.64907
              CHANNELS 3 Zrotation Xrotation Yrotation
              JOINT RightHand
              {
                OFFSET 27.4588 0.290562 -0.101845
                CHANNELS 3 Zrotation Xrotation Yrotation
                End Site
                {
                  OFFSET 17.8396 -0.255518 -0.000602873
                }
              }
            }
          }
        }
      }
    }
  }
  JOINT LeftUpLeg
  {
    OFFSET -5.61296 -2.22332 -10.2353
    CHANNELS 3 Zrotation Xrotation Yrotation
    JOINT LeftLeg
    {
      OFFSET 2.56703 -44.7417 -7.93097
      CHANNELS 3 Zrotation Xrotation Yrotation
      JOINT LeftFoot
      {
        OFFSET 3.16933 -46.5642 -3.96578
        CHANNELS 3 Zrotation Xrotation Yrotation
        JOINT LeftToeBase
        {
          OFFSET 0.346054 -6.02161 12.8035
          CHANNELS 3 Zrotation Xrotation Yrotation
          End Site
          {
            OFFSET 0.134235 -1.35082 5.13018
          }
        }
      }
    }
  }
  JOINT RightUpLeg
  {
    OFFSET -5.7928 -1.72406 10.6446
    CHANNELS 3 Zrotation Xrotation Yrotation
    JOINT RightLeg
    {
      OFFSET -2.57161 -44.7178 -7.85259
      CHANNELS 3 Zrotation Xrotation Yrotation
      JOINT RightFoot
      {
        OFFSET -3.10148 -46.5936 -4.03391
        CHANNELS 3 Zrotation Xrotation Yrotation
        JOINT RightToeBase
        {
          OFFSET -0.0828122 -6.13587 12.8035
          CHANNELS 3 Zrotation Xrotation Yrotation
          End Site
          {
            OFFSET -0.131328 -1.35082 5.13018
          }
        }
      }
    }
  }
}
MOTION
Frames:	11
Frame Time:	0.0333333
-9.08738 106.66 0.854366 11.9208 -71.4161 -77.3434 -70.1915 0 88.8779 68.2368 70.0374 16.7126 5.23652 19.207 5.77375 -154.084 23.0577 176.852 -165.234 62.5645 -175.415 2.16572 -4.87449 -34.8106 -105.962 48.283 -88.9555 -14.5788 43.7966 10.4105 6.64651 -0.293391 -3.24288 0.387932 -1.22303 46.3866 -81.7643 -33.7779 91.4669 -5.92878 -12.2649 9.9382 10.4399 0.0023277 -0.323192 -57.9586 -0.239193 95.5534 2.84771 16.4044 -4.5312 4.38994 -2.43657 -0.724489 -1.11092 -2.54387 1.08407 -60.2783 3.94772 82.0989 -1.029 15.3403 -5.46226 -4.80454 -2.48798 0.825597 -0.336311 -2.42971 -0.966463 
-9.09423 106.666 0.855007 11.7641 -71.4287 -77.4884 -70.1915 0 88.8779 68.5031 70.0474 16.5355 5.18926 19.2141 5.68671 -154.113 22.8655 177.277 -166.626 62.4385 -174.259 2.17299 -4.86238 -34.9063 -105.611 48.1265 -88.875 -14.6561 43.3017 10.3238 7.11852 -0.330997 -3.50236 0.392278 -1.23595 46.4306 -81.4078 -33.7591 91.6621 -5.84233 -11.7089 10.2236 11.3663 -0.0549585 -0.956555 -58.0346 -0.247788 95.5466 2.88685 16.2556 -4.52754 4.32106 -2.41938 -0.717064 -1.08628 -2.46463 1.17375 -60.335 3.95125 82.0776 -0.986559 15.2219 -5.3949 -4.88772 -2.43605 0.832425 -0.340038 -2.448 -0.964284 
-9.10411 106.652 0.849059 11.1505 -71.4359 -78.1364 -70.1915 0 88.8779 68.425 70.0511 16.6802 5.25385 19.2772 5.51048 -154.119 23.0139 176.271 -162.842 62.3717 -177.404 2.22242 -4.6612 -34.9845 -104.967 47.9011 -89.2982 -14.8411 42.9007 10.2547 7.73302 -0.390162 -3.94468 0.394651 -1.23955 46.6804 -80.6708 -33.5107 92.1298 -5.86127 -10.8149 10.4797 11.7122 -0.0834849 -1.22135 -58.0229 -0.212072 95.5871 2.83504 16.2493 -4.41778 4.26698 -2.51315 -0.71496 -1.05191 -2.35159 1.30893 -60.2325 3.92174 82.0675 -0.956119 15.3309 -5.18675 -5.02029 -2.48273 0.847103 -0.34838 -2.48744 -0.956935 
-9.12598 106.644 0.80773 10.6866 -71.5147 -78.5418 -70.1915 0 88.8779 68.8 70.1432 16.3974 5.19957 19.3444 5.45757 -153.951 22.9548 176.045 -161.738 62.2177 -178.43 2.27537 -4.46415 -35.1426 -104.403 47.6928 -89.7752 -15.0177 42.6534 10.2126 8.15309 -0.442579 -4.36771 0.397379 -1.24621 46.7872 -79.9802 -33.4065 92.5035 -5.81067 -10.0576 10.7958 12.426 -0.129629 -1.62151 -58.0099 -0.0230096 95.7283 2.74122 16.353 -4.4863 4.23687 -2.63342 -0.716261 -1.01718 -2.23908 1.4322 -60.2509 4.09708 82.1951 -1.05271 15.3113 -5.19558 -5.01543 -2.43751 0.845359 -0.354891 -2.50422 -0.92841 
-9.14195 106.631 0.740908 10.4741 -71.6247 -78.6808 -70.1915 0 88.8779 69.8957 70.2102 15.405 4.89179 19.2938 5.47864 -153.684 22.8845 176.349 -162.165 62.1829 -177.658 2.35154 -4.1336 -35.1562 -104.429 47.7039 -89.7296 -15.0892 42.9587 10.2637 8.26969 -0.481001 -4.79537 0.366983 -1.15134 46.8658 -79.8217 -33.2691 92.6061 -5.86636 -9.861 10.7972 12.5511 -0.140062 -1.70622 -57.9715 0.0656835 95.7468 2.7962 16.5482 -4.52012 4.15205 -2.76887 -0.71285 -0.987179 -2.14299 1.53012 -60.3076 4.20393 82.2343 -1.05076 15.3073 -5.19082 -5.09617 -2.39898 0.85247 -0.36628 -2.55657 -0.915671 
-9.15748 106.622 0.701382 10.1532 -71.67 -78.9831 -70.1915 0 88.8779 69.8253 70.3308 15.4956 4.93653 19.4005 5.55185 -153.494 22.9671 176.298 -161.753 62.2325 -177.94 2.38284 -4.0506 -35.3795 -104.321 47.6287 -89.9352 -15.11 42.9316 10.2591 8.23433 -0.47569 -4.74963 0.389723 -1.22231 46.8048 -79.3148 -33.1846 92.8656 -5.86939 -9.11394 11.03 12.4886 -0.154746 -1.85414 -57.9699 0.108705 95.7639 2.80982 16.579 -4.50309 4.11524 -2.82469 -0.711335 -0.966831 -2.06463 1.66254 -60.3181 4.2063 82.2012 -0.979111 15.2885 -5.06545 -5.24187 -2.35491 0.866055 -0.379324 -2.65037 -0.956732 
-9.17733 106.614 0.695789 10.153 -71.6235 -78.9582 -70.1915 0 88.8779 69.3693 70.2807 15.9389 5.06713 19.3936 5.5731 -153.304 23.0528 176.27 -161.899 62.34 -177.558 2.40234 -3.9808 -35.4401 -104.595 47.6819 -89.711 -15.0412 42.9688 10.2656 8.29376 -0.503084 -5.06888 0.398251 -1.25027 46.7028 -79.3036 -33.276 92.8907 -5.82952 -9.20976 11.0599 12.5696 -0.159196 -1.88655 -57.8862 0.182615 95.8048 2.7545 16.6337 -4.58413 4.11713 -2.87855 -0.713479 -0.953456 -2.01958 1.71545 -60.2401 4.21568 82.1851 -0.941052 15.3435 -5.1021 -5.22774 -2.37092 0.865038 -0.383369 -2.65422 -0.927942 
-9.17655 106.614 0.658433 10.1686 -71.6728 -78.9951 -70.1915 0 88.8779 69.7392 70.2813 15.638 5.05489 19.4217 5.34362 -153.211 23.0276 176.083 -161.774 62.3123 -177.598 2.40994 -3.93408 -35.3837 -105.239 47.7883 -89.1371 -14.9187 43.5967 10.3742 8.21167 -0.50216 -5.11853 0.387699 -1.21371 46.971 -79.8209 -33.1229 92.5862 -5.83668 -9.63815 10.8861 12.4061 -0.163175 -1.94709 -57.9738 0.0677154 95.7235 2.81893 16.5215 -4.50172 4.08529 -2.82236 -0.708377 -0.953762 -2.01 1.76815 -60.2285 4.07213 82.0585 -0.837078 15.4402 -4.95499 -5.25712 -2.39762 0.868704 -0.388198 -2.67886 -0.926498 
-9.18546 106.613 0.620589 10.193 -71.6692 -78.9875 -70.1915 0 88.8779 69.8188 70.3192 15.5807 5.05969 19.4648 5.29494 -153.234 23.1045 175.968 -161.548 62.3757 -177.804 2.42095 -3.93461 -35.5815 -105.157 47.6418 -89.1856 -14.9587 43.6859 10.3897 8.66056 -0.541837 -5.28229 0.38878 -1.21645 47.009 -79.1929 -33.1109 92.7156 -5.84187 -8.93805 11.1163 12.1662 -0.17627 -2.10897 -57.944 0.0683397 95.7392 2.79507 16.5311 -4.54204 4.06531 -2.80031 -0.705647 -0.95738 -2.00645 1.83389 -60.2225 4.08883 82.0931 -0.877523 15.4009 -4.95396 -5.30732 -2.35063 0.872596 -0.397429 -2.76384 -0.986787 
-9.20361 106.612 0.550786 10.3906 -71.7302 -78.7559 -70.1915 0 88.8779 70.6721 70.3669 14.8405 4.92458 19.4859 5.08955 -153.16 23.1387 175.693 -161.331 62.4077 -177.852 2.42055 -3.90026 -35.4338 -104.769 47.658 -89.2553 -14.969 42.8182 10.2404 8.5172 -0.513741 -5.03488 0.382359 -1.19209 47.3444 -78.9243 -32.8951 92.6189 -5.8283 -8.64603 11.2345 12.1751 -0.192851 -2.27132 -57.8945 0.0812205 95.7155 2.8467 16.6746 -4.60918 4.04989 -2.83808 -0.705558 -0.956975 -1.99768 1.87291 -60.2338 4.13905 82.1134 -0.897285 15.4492 -5.03468 -5.31296 -2.34095 0.872929 -0.400708 -2.78409 -0.991748 
-9.2155 106.612 0.502493 10.5501 -71.8389 -78.5753 -70.1915 0 88.8779 71.465 70.4864 13.9514 4.72445 19.4846 5.24055 -153.186 23.1124 175.655 -160.965 62.3461 -178.257 2.42686 -3.89422 -35.5205 -104.649 47.5999 -89.2413 -14.992 42.5154 10.1898 8.55642 -0.498453 -4.809 0.376252 -1.17436 47.2763 -79.2592 -33.0373 92.2057 -5.73713 -8.81894 11.2729 12.1387 -0.231729 -2.66371 -57.9487 0.121468 95.7529 2.84116 16.7444 -4.70545 4.0731 -2.85272 -0.708324 -0.960634 -1.99512 1.93409 -60.2915 4.11447 82.0449 -0.837519 15.5295 -5.02774 -5.25247 -2.36133 0.8673 -0.399367 -2.77506 -0.988447 
